{"accessors" : [{"bufferView" : 0, "byteOffset" : 0, "componentType" : 5123, "count" : 2484, "type" : "SCALAR", "max" : [2069], "min" : [0]}, {"bufferView" : 1, "byteOffset" : 0, "componentType" : 5126, "count" : 2070, "type" : "VEC3", "max" : [481.8097229003906, 1107.5631103515625, 33.22614288330078], "min" : [383.9135437011719, 1082.9625244140625, -32.788597106933594], "name" : "POSITION"}, {"bufferView" : 1, "byteOffset" : 12, "componentType" : 5126, "count" : 2070, "type" : "VEC2", "max" : [0.5, -0], "min" : [0, -1], "name" : "TEXCOORD_0"}, {"bufferView" : 1, "byteOffset" : 20, "componentType" : 5126, "count" : 2070, "type" : "VEC3", "max" : [0.998150110244751, -0.009839143604040146, 0.9927963614463806], "min" : [-0.9968018531799316, -0.9999586343765259, -0.9927963614463806], "name" : "NORMAL"}, {"bufferView" : 0, "byteOffset" : 4968, "componentType" : 5123, "count" : 2610, "type" : "SCALAR", "max" : [2142], "min" : [0]}, {"bufferView" : 2, "byteOffset" : 0, "componentType" : 5126, "count" : 2143, "type" : "VEC3", "max" : [487.5408630371094, 1146.3721923828125, 40.947425842285156], "min" : [345.5094909667969, 1103.4754638671875, -40.58304977416992], "name" : "POSITION"}, {"bufferView" : 0, "byteOffset" : 10188, "componentType" : 5123, "count" : 432, "type" : "SCALAR", "max" : [395], "min" : [0]}, {"bufferView" : 3, "byteOffset" : 0, "componentType" : 5126, "count" : 396, "type" : "VEC3", "max" : [364.6202697753906, 1130.760009765625, 8.928997993469238], "min" : [313.9170227050781, 1112.5535888671875, -8.794493675231934], "name" : "POSITION"}, {"bufferView" : 3, "byteOffset" : 12, "componentType" : 5126, "count" : 396, "type" : "VEC2", "max" : [1, -0], "min" : [0, -1], "name" : "TEXCOORD_0"}, {"bufferView" : 3, "byteOffset" : 20, "componentType" : 5126, "count" : 396, "type" : "VEC3", "max" : [0.9999586343765259, 0.9999585747718811, 1.0000044107437134], "min" : [-0.9999586343765259, -0.9999585747718811, -1.0000044107437134], "name" : "NORMAL"}, {"bufferView" : 0, "byteOffset" : 11052, "componentType" : 5123, "count" : 816, "type" : "SCALAR", "max" : [687], "min" : [0]}, {"bufferView" : 4, "byteOffset" : 0, "componentType" : 5126, "count" : 688, "type" : "VEC3", "max" : [333.6188049316406, 1129.7457275390625, 22.329967498779297], "min" : [-154.39111328125, -435.3377380371094, -22.3726806640625], "name" : "POSITION"}, {"bufferView" : 4, "byteOffset" : 12, "componentType" : 5126, "count" : 688, "type" : "VEC2", "max" : [1, -0], "min" : [0, -1], "name" : "TEXCOORD_0"}, {"bufferView" : 4, "byteOffset" : 20, "componentType" : 5126, "count" : 688, "type" : "VEC3", "max" : [0.9961993098258972, 0.9214999675750732, 0.9238990545272827], "min" : [-0.9238705039024353, -1.0000044107437134, -0.9238869547843933], "name" : "NORMAL"}, {"bufferView" : 0, "byteOffset" : 12684, "componentType" : 5123, "count" : 168, "type" : "SCALAR", "max" : [136], "min" : [0]}, {"bufferView" : 5, "byteOffset" : 0, "componentType" : 5126, "count" : 137, "type" : "VEC3", "max" : [-102.4516372680664, -425.32733154296875, 11.741377830505371], "min" : [-161.6279296875, -435.13232421875, -11.784092903137207], "name" : "POSITION"}, {"bufferView" : 5, "byteOffset" : 12, "componentType" : 5126, "count" : 137, "type" : "VEC2", "max" : [1, -0], "min" : [0, -1], "name" : "TEXCOORD_0"}, {"bufferView" : 5, "byteOffset" : 20, "componentType" : 5126, "count" : 137, "type" : "VEC3", "max" : [0, -1.0000044107437134, 0], "min" : [0, -1.0000044107437134, 0], "name" : "NORMAL"}, {"bufferView" : 0, "byteOffset" : 13020, "componentType" : 5123, "count" : 168, "type" : "SCALAR", "max" : [136], "min" : [0]}, {"bufferView" : 6, "byteOffset" : 0, "componentType" : 5126, "count" : 137, "type" : "VEC3", "max" : [-117.81755828857422, -425.32733154296875, 27.919523239135742], "min" : [-146.2620086669922, -435.13232421875, -27.962236404418945], "name" : "POSITION"}, {"bufferView" : 6, "byteOffset" : 12, "componentType" : 5126, "count" : 137, "type" : "VEC2", "max" : [1, -0], "min" : [0, -1], "name" : "TEXCOORD_0"}, {"bufferView" : 6, "byteOffset" : 20, "componentType" : 5126, "count" : 137, "type" : "VEC3", "max" : [0, -1.0000044107437134, 0], "min" : [0, -1.0000044107437134, 0], "name" : "NORMAL"}, {"bufferView" : 0, "byteOffset" : 13356, "componentType" : 5123, "count" : 36, "type" : "SCALAR", "max" : [29], "min" : [0]}, {"bufferView" : 7, "byteOffset" : 0, "componentType" : 5126, "count" : 30, "type" : "VEC3", "max" : [-73.20978546142578, -434.9464111328125, 58.80864334106445], "min" : [-190.86978149414062, -438.868408203125, -58.851356506347656], "name" : "POSITION"}, {"bufferView" : 7, "byteOffset" : 12, "componentType" : 5126, "count" : 30, "type" : "VEC2", "max" : [1, -0], "min" : [0, -1], "name" : "TEXCOORD_0"}, {"bufferView" : 7, "byteOffset" : 20, "componentType" : 5126, "count" : 30, "type" : "VEC3", "max" : [0, 0, 1.0000044107437134], "min" : [0, -1.0000044107437134, -1.0000044107437134], "name" : "NORMAL"}], "asset" : {"generator" : "Aspose.3D 22.1", "version" : "2.0"}, "buffers" : [{"uri" : "data:application/octet-stream;base64,", "byteLength" : 176108}], "bufferViews" : [{"buffer" : 0, "byteOffset" : 0, "byteLength" : 13428, "target" : 34963}, {"buffer" : 0, "byteOffset" : 13432, "byteLength" : 79488, "byteStride" : 32, "target" : 34962}, {"buffer" : 0, "byteOffset" : 92924, "byteLength" : 31320, "byteStride" : 12, "target" : 34962}, {"buffer" : 0, "byteOffset" : 124248, "byteLength" : 13824, "byteStride" : 32, "target" : 34962}, {"buffer" : 0, "byteOffset" : 138076, "byteLength" : 26112, "byteStride" : 32, "target" : 34962}, {"buffer" : 0, "byteOffset" : 164192, "byteLength" : 5376, "byteStride" : 32, "target" : 34962}, {"buffer" : 0, "byteOffset" : 169572, "byteLength" : 5376, "byteStride" : 32, "target" : 34962}, {"buffer" : 0, "byteOffset" : 174952, "byteLength" : 1152, "byteStride" : 32, "target" : 34962}], "materials" : [{"name" : "", "pbrMetallicRoughness" : {"baseColorFactor" : [1, 1, 1, 1], "metallicFactor" : 0, "roughnessFactor" : 0}, "emissiveFactor" : [0, 0, 0], "alphaMode" : "OPAQUE", "doubleSided" : false}, {"name" : "", "pbrMetallicRoughness" : {"baseColorFactor" : [0.94999998807907, 0.94999998807907, 0.94999998807907, 1], "metallicFactor" : 0, "roughnessFactor" : 0}, "emissiveFactor" : [0, 0, 0], "alphaMode" : "OPAQUE", "doubleSided" : false}, {"name" : "", "pbrMetallicRoughness" : {"baseColorFactor" : [0.94999998807907, 0.94999998807907, 0.94999998807907, 1], "metallicFactor" : 0, "roughnessFactor" : 0}, "emissiveFactor" : [0, 0, 0], "alphaMode" : "OPAQUE", "doubleSided" : false}, {"name" : "", "pbrMetallicRoughness" : {"baseColorFactor" : [0, 0, 0, 1], "metallicFactor" : 0, "roughnessFactor" : 0}, "emissiveFactor" : [0, 0, 0], "alphaMode" : "OPAQUE", "doubleSided" : false}, {"name" : "", "pbrMetallicRoughness" : {"baseColorFactor" : [1, 1, 1, 1], "metallicFactor" : 0, "roughnessFactor" : 0}, "emissiveFactor" : [0, 0, 0], "alphaMode" : "OPAQUE", "doubleSided" : false}, {"name" : "", "pbrMetallicRoughness" : {"baseColorFactor" : [1, 1, 1, 1], "metallicFactor" : 0, "roughnessFactor" : 0}, "emissiveFactor" : [0, 0, 0], "alphaMode" : "OPAQUE", "doubleSided" : false}, {"name" : "", "pbrMetallicRoughness" : {"baseColorFactor" : [0, 0, 0, 1], "metallicFactor" : 0, "roughnessFactor" : 0}, "emissiveFactor" : [0, 0, 0], "alphaMode" : "OPAQUE", "doubleSided" : false}], "meshes" : [{"primitives" : [{"attributes" : {"POSITION" : 1, "TEXCOORD_0" : 2, "NORMAL" : 3}, "indices" : 0, "material" : 0, "mode" : 4}], "name" : ""}, {"primitives" : [{"attributes" : {"POSITION" : 5}, "indices" : 4, "material" : 1, "mode" : 4}], "name" : ""}, {"primitives" : [{"attributes" : {"POSITION" : 7, "TEXCOORD_0" : 8, "NORMAL" : 9}, "indices" : 6, "material" : 2, "mode" : 4}], "name" : ""}, {"primitives" : [{"attributes" : {"POSITION" : 11, "TEXCOORD_0" : 12, "NORMAL" : 13}, "indices" : 10, "material" : 3, "mode" : 4}], "name" : ""}, {"primitives" : [{"attributes" : {"POSITION" : 15, "TEXCOORD_0" : 16, "NORMAL" : 17}, "indices" : 14, "material" : 4, "mode" : 4}], "name" : ""}, {"primitives" : [{"attributes" : {"POSITION" : 19, "TEXCOORD_0" : 20, "NORMAL" : 21}, "indices" : 18, "material" : 5, "mode" : 4}], "name" : ""}, {"primitives" : [{"attributes" : {"POSITION" : 23, "TEXCOORD_0" : 24, "NORMAL" : 25}, "indices" : 22, "material" : 6, "mode" : 4}], "name" : ""}], "nodes" : [{"mesh" : 0, "name" : "Glass_Cap"}, {"mesh" : 1, "name" : "OutherSide"}, {"mesh" : 2, "name" : "Root"}, {"mesh" : 3, "name" : "Pole"}, {"mesh" : 4, "name" : "Cube.1"}, {"mesh" : 5, "name" : "Cube.1_1"}, {"mesh" : 6, "name" : "ground"}], "scene" : 0, "scenes" : [{"nodes" : [0, 1, 2, 3, 4, 5, 6]}]}